<svg width="22" height="18" viewBox="0 0 22 18" fill="none" xmlns="http://www.w3.org/2000/svg">
<path d="M1.57143 8.7045C0.703552 8.7045 3.7936e-08 8.00095 0 7.13308C-3.7936e-08 6.2652 0.703552 5.56165 1.57143 5.56165L20.4286 5.56165C21.2964 5.56165 22 6.2652 22 7.13307C22 8.00095 21.2964 8.7045 20.4286 8.7045L1.57143 8.7045Z" fill="#AEC3B0"/>
<path d="M6.12148 5.56162L8.80442 2.87868C9.97599 1.70711 11.8755 1.70711 13.0471 2.87868L15.73 5.56162L18.4448 5.56162C18.2762 5.31839 18.0836 5.08679 17.8669 4.87012L14.4613 1.46446C12.5087 -0.488157 9.34283 -0.488154 7.39021 1.46447L3.98455 4.87012C3.76788 5.08679 3.57526 5.31839 3.40668 5.56162L6.12148 5.56162Z" fill="#AEC3B0"/>
<path fill-rule="evenodd" clip-rule="evenodd" d="M0.999899 8.25539L2.44607 16.2093C2.60133 17.0633 3.34507 17.684 4.21301 17.684H18.1112C18.9891 17.684 19.7383 17.0493 19.8827 16.1833L21.204 8.25539H0.999899ZM6.09072 9.15334C5.48828 9.15334 4.9999 9.64172 4.9999 10.2442V13.4503C4.9999 14.0527 5.48828 14.5411 6.09072 14.5411C6.69317 14.5411 7.18154 14.0527 7.18154 13.4503V10.2442C7.18154 9.64172 6.69317 9.15334 6.09072 9.15334ZM9.9088 10.2442C9.9088 9.64172 10.3972 9.15334 10.9996 9.15334C11.6021 9.15334 12.0904 9.64172 12.0904 10.2442V13.4503C12.0904 14.0527 11.6021 14.5411 10.9996 14.5411C10.3972 14.5411 9.9088 14.0527 9.9088 13.4503V10.2442ZM15.9096 9.15334C15.3071 9.15334 14.8188 9.64172 14.8188 10.2442V13.4503C14.8188 14.0527 15.3071 14.5411 15.9096 14.5411C16.512 14.5411 17.0004 14.0527 17.0004 13.4503V10.2442C17.0004 9.64172 16.512 9.15334 15.9096 9.15334Z" fill="#AEC3B0"/>
</svg>
