<svg width="62" height="46" viewBox="0 0 62 46" fill="none" xmlns="http://www.w3.org/2000/svg">
<g clip-path="url(#clip0_307_795)">
<path d="M0 0H62V46H0V0Z" fill="#012169"/>
<path d="M7.26562 0L30.9031 17.3458L54.4437 0H62V5.94167L38.75 23.0958L62 40.1542V46H54.25L31 28.8458L7.84687 46H0V40.25L23.1531 23.1917L0 6.13333V0H7.26562Z" fill="white"/>
<path d="M41.075 26.9292L62 42.1667V46L35.7469 26.9292H41.075ZM23.25 28.8458L23.8312 32.2L5.23125 46H0L23.25 28.8458ZM62 0V0.2875L37.8781 18.3042L38.0719 14.0875L57.1562 0H62ZM0 0L23.1531 16.8667H17.3406L0 4.025V0Z" fill="#C8102E"/>
<path d="M23.3469 0V46H38.8469V0H23.3469ZM0 15.3333V30.6667H62V15.3333H0Z" fill="white"/>
<path d="M0 18.4958V27.6958H62V18.4958H0ZM26.4469 0V46H35.7469V0H26.4469Z" fill="#C8102E"/>
</g>
<defs>
<clipPath id="clip0_307_795">
<rect width="62" height="46" fill="white"/>
</clipPath>
</defs>
</svg>
