<svg width="273" height="130" viewBox="0 0 273 130" fill="none" xmlns="http://www.w3.org/2000/svg">
<path d="M3.23961 111.557L10.3675 111.59L10.3561 114.076L6.08812 114.057L6.07615 116.653L10.3441 116.672L10.3322 119.246L6.06429 119.226L6.04126 124.22L3.18129 124.207L3.23961 111.557ZM18.4571 117.788L18.4785 113.146L15.9115 111.616L11.3575 111.595L11.3461 114.081L15.614 114.101L15.6021 116.696L11.3341 116.677L11.3222 119.251L15.8762 119.272L18.4571 117.788ZM20.6418 111.638L23.4137 111.65L23.3903 116.732L27.6583 116.752L27.6467 119.26L23.3788 119.24L23.3554 124.3L20.5835 124.288L20.6418 111.638ZM35.7996 111.708L33.0276 111.695L33.0042 116.777L28.7363 116.757L28.7247 119.265L32.9926 119.285L32.9693 124.345L35.7413 124.358L35.7996 111.708ZM39.7454 113.244L39.694 124.376L42.466 124.389L42.4893 119.329L46.7573 119.348L46.7688 116.84L42.5009 116.821L42.5129 114.225L46.7808 114.244L46.7923 111.758L42.2603 111.738L39.7454 113.244ZM54.9032 113.314L54.8519 124.446L52.0799 124.433L52.1032 119.373L47.7473 119.353L47.7588 116.845L52.1148 116.865L52.1268 114.269L47.7708 114.249L47.7823 111.763L52.3142 111.784L54.9032 113.314ZM58.8621 111.814L65.902 111.847L65.89 114.443L61.6221 114.423L61.6106 116.909L65.8786 116.929L65.8667 119.503L61.5987 119.483L61.5757 124.477L58.8037 124.464L58.8621 111.814ZM73.9616 124.534L73.9857 119.298L71.9227 118.211L73.9953 117.23L74.0129 113.402L71.4239 111.872L66.892 111.851L66.88 114.447L71.236 114.467L71.2245 116.953L66.8686 116.933L66.8567 119.507L71.2126 119.527L71.1896 124.521L73.9616 124.534ZM77.7681 111.901L80.2761 111.913L84.7884 116.202L84.773 119.524L80.5237 115.478L80.4818 124.564L77.7098 124.551L77.7681 111.901ZM92.926 111.971L90.44 111.96L85.8664 116.207L85.851 119.529L90.1376 115.523L90.0957 124.608L92.8676 124.621L92.926 111.971ZM96.8717 113.508L96.8204 124.64L99.5923 124.652L99.6157 119.592L103.884 119.612L103.895 117.104L99.6272 117.084L99.6392 114.488L103.907 114.508L103.919 112.022L99.3867 112.001L96.8717 113.508ZM112.03 113.578L111.978 124.71L109.206 124.697L109.23 119.637L104.874 119.617L104.885 117.109L109.241 117.129L109.253 114.533L104.897 114.513L104.909 112.027L109.441 112.048L112.03 113.578ZM114.188 113.588L116.769 112.081L121.323 112.103L121.311 114.588L117.043 114.569L117.008 122.159L121.188 122.178L121.177 124.752L116.711 124.731L114.143 123.223L114.188 113.588ZM126.541 120.685L126.534 122.203L122.354 122.183L122.343 124.757L126.808 124.778L129.389 123.294L129.401 120.698L126.541 120.685ZM129.422 116.166L129.434 113.658L126.867 112.128L122.313 112.107L122.301 114.593L126.569 114.613L126.562 116.153L129.422 116.166ZM132.951 112.156L135.723 112.169L135.664 124.819L132.892 124.806L132.951 112.156ZM139.685 112.187L146.725 112.22L146.713 114.816L142.445 114.796L142.434 117.282L146.702 117.302L146.69 119.81L142.422 119.79L142.411 122.364L146.59 122.383L146.579 124.869L139.627 124.837L139.685 112.187ZM147.756 122.389L147.745 124.875L154.785 124.907L154.796 122.421L147.756 122.389ZM154.831 114.853L154.843 112.257L147.715 112.224L147.703 114.82L154.831 114.853ZM151.244 119.831L151.256 117.323L147.692 117.306L147.68 119.814L151.244 119.831ZM164.306 112.301L171.346 112.333L171.335 114.819L167.067 114.8L167.032 122.39L171.3 122.409L171.288 124.983L164.248 124.951L164.306 112.301ZM179.457 113.889L176.978 112.359L172.424 112.338L172.413 114.824L176.681 114.844L176.646 122.434L172.378 122.414L172.366 124.988L176.92 125.009L179.413 123.525L179.457 113.889ZM182.987 112.387L182.936 123.541L185.437 125.049L189.969 125.07L189.981 122.496L185.713 122.476L185.759 112.4L182.987 112.387ZM198.145 112.457L198.094 123.611L195.601 125.096L191.047 125.075L191.059 122.501L195.327 122.52L195.373 112.444L198.145 112.457ZM202.097 112.475L209.225 112.508L209.213 114.994L204.945 114.975L204.933 117.571L209.201 117.59L209.189 120.164L204.922 120.145L204.899 125.138L202.039 125.125L202.097 112.475ZM217.314 118.706L217.336 114.064L214.769 112.534L210.215 112.513L210.203 114.999L214.471 115.019L214.459 117.615L210.191 117.595L210.179 120.169L214.733 120.19L217.314 118.706ZM219.761 114.075L222.342 112.569L226.896 112.59L226.884 115.076L222.529 115.056L222.494 122.646L226.761 122.665L226.75 125.239L222.284 125.219L219.717 123.711L219.761 114.075ZM234.919 114.145L232.44 112.615L227.886 112.594L227.874 115.08L232.142 115.1L232.107 122.69L227.839 122.67L227.828 125.244L232.382 125.265L234.874 123.781L234.919 114.145ZM238.878 112.645L241.386 112.657L245.898 116.946L245.883 120.268L241.634 116.134L241.591 125.308L238.819 125.295L238.878 112.645ZM251.222 121.788L251.264 112.702L254.036 112.715L253.977 125.365L251.381 125.353L246.869 120.976L246.884 117.764L251.222 121.788ZM272.035 115.284L265.699 115.255L265.652 125.419L262.616 125.405L262.663 115.241L256.877 115.214L256.888 112.728L272.046 112.798L272.035 115.284Z" fill="#636F71"/>
<path d="M145.34 30.7252V19.3388C152.204 19.3388 152.428 13.9878 151.682 11.3123C152.428 10.6901 154.331 9.89366 155.972 11.6856C157.614 13.4776 161.941 15.4189 165.672 15.4189C166.169 15.3567 170.596 15.2695 184.325 15.4189C185.444 17.0988 185.071 17.8455 184.698 19.3388C184.325 20.8321 179.475 22.5121 176.677 21.9521C176.304 25.4987 172.574 27.552 169.776 25.312C170.086 25.8098 170.111 27.104 167.724 28.2986C165.336 29.4932 162.874 28.7964 161.941 28.2986C162.128 28.9208 162.09 30.2772 160.449 30.7252C158.397 31.2852 155.413 31.4719 153.174 29.4186C152.13 31.9572 147.516 31.3474 145.34 30.7252Z" stroke="#636F71" stroke-width="2"/>
<path d="M127.735 30.7252V19.3388C120.871 19.3388 120.647 13.9878 121.393 11.3123C120.647 10.6901 118.744 9.89366 117.103 11.6856C115.461 13.4776 111.134 15.4189 107.403 15.4189C106.906 15.3567 102.479 15.2695 88.7499 15.4189C87.6307 17.0988 88.0038 17.8455 88.3768 19.3388C88.7499 20.8321 93.5997 22.5121 96.3977 21.9521C96.7708 25.4987 100.501 27.552 103.299 25.312C102.989 25.8098 102.964 27.104 105.351 28.2986C107.739 29.4932 110.201 28.7964 111.134 28.2986C110.947 28.9208 110.985 30.2772 112.626 30.7252C114.678 31.2852 117.663 31.4719 119.901 29.4186C120.945 31.9572 125.559 31.3474 127.735 30.7252Z" stroke="#636F71" stroke-width="2"/>
<path d="M146.996 52.5168C146.996 53.815 146.051 55.1936 144.077 56.3046C142.134 57.3981 139.383 58.1059 136.29 58.1059C133.197 58.1059 130.446 57.3981 128.503 56.3046C126.53 55.1936 125.584 53.815 125.584 52.5168C125.584 51.2187 126.53 49.8401 128.503 48.7291C130.446 47.6356 133.197 46.9277 136.29 46.9277C139.383 46.9277 142.134 47.6356 144.077 48.7291C146.051 49.8401 146.996 51.2187 146.996 52.5168Z" stroke="#636F71" stroke-width="2"/>
<path d="M145.533 63.4986C145.533 64.6026 144.741 65.7971 143.036 66.772C141.36 67.7308 138.977 68.3556 136.29 68.3556C133.604 68.3556 131.221 67.7308 129.544 66.772C127.839 65.7971 127.048 64.6026 127.048 63.4986C127.048 62.3946 127.839 61.2 129.544 60.2252C131.221 59.2664 133.604 58.6416 136.29 58.6416C138.977 58.6416 141.36 59.2664 143.036 60.2252C144.741 61.2 145.533 62.3946 145.533 63.4986Z" stroke="#636F71" stroke-width="2"/>
<path d="M144.07 73.0165C144.07 73.9287 143.429 74.9391 141.994 75.7767C140.584 76.6 138.569 77.1413 136.29 77.1413C134.011 77.1413 131.997 76.6 130.586 75.7767C129.152 74.9391 128.511 73.9287 128.511 73.0165C128.511 72.1042 129.152 71.0939 130.586 70.2563C131.997 69.4329 134.011 68.8916 136.29 68.8916C138.569 68.8916 140.584 69.4329 141.994 70.2563C143.429 71.0939 144.07 72.1042 144.07 73.0165Z" stroke="#636F71" stroke-width="2"/>
<path fill-rule="evenodd" clip-rule="evenodd" d="M130.475 34.2887C124.565 35.4043 120.402 38.0781 120.402 41.1993C120.402 45.3229 127.668 48.6658 136.631 48.6658C145.593 48.6658 152.859 45.3229 152.859 41.1993C152.859 38.0128 148.521 35.2926 142.413 34.2207V36.2535C144.276 36.6049 145.923 37.117 147.27 37.7366C150.062 39.021 150.859 40.3912 150.859 41.1993C150.859 42.0074 150.062 43.3776 147.27 44.662C144.65 45.8673 140.891 46.6658 136.631 46.6658C132.371 46.6658 128.611 45.8673 125.992 44.662C123.2 43.3776 122.402 42.0074 122.402 41.1993C122.402 40.3912 123.2 39.021 125.992 37.7366C127.248 37.1587 128.766 36.6744 130.475 36.3267V34.2887Z" fill="#636F71"/>
<path d="M140.227 12.1712C141.709 11.0343 142.667 9.24259 142.667 7.22656C142.667 3.78837 139.882 1 136.444 1C133.007 1 130.221 3.78837 130.221 7.22656C130.221 9.32766 131.262 11.1848 132.852 12.3115L132.859 12.6762C132.869 13.2626 132.884 14.1227 132.904 15.2176C132.944 17.4074 133 20.5364 133.07 24.2937C133.209 31.808 133.399 41.8352 133.603 51.8858C133.807 61.936 134.025 72.0113 134.22 79.6215C134.317 83.426 134.409 86.6174 134.49 88.8824C134.531 90.0139 134.57 90.9197 134.605 91.5569C134.623 91.874 134.64 92.1338 134.658 92.3248C134.666 92.4186 134.676 92.5093 134.687 92.5871C134.693 92.625 134.701 92.6748 134.714 92.7275L134.714 92.7304C134.721 92.7576 134.753 92.8996 134.84 93.0457C135.155 93.5708 135.71 94.2318 136.579 94.1956C137.383 94.162 137.909 93.5359 138.209 93.0859C138.305 92.9416 138.344 92.8011 138.353 92.7664L138.354 92.7635C138.37 92.7055 138.381 92.6509 138.388 92.6096C138.403 92.5252 138.415 92.4291 138.426 92.332C138.447 92.1344 138.468 91.8689 138.488 91.5481C138.529 90.9033 138.572 89.9907 138.617 88.8539C138.706 86.5781 138.803 83.3772 138.903 79.5649C139.104 71.939 139.318 61.8517 139.516 51.7929C139.713 41.7336 139.893 31.7008 140.023 24.1829C140.089 20.4239 140.141 17.2936 140.178 15.103C140.196 14.0077 140.211 13.1474 140.22 12.5608L140.227 12.1712ZM137.683 7.22656C137.683 7.912 137.127 8.46651 136.444 8.46651C135.761 8.46651 135.206 7.912 135.206 7.22656C135.206 6.54112 135.761 5.9866 136.444 5.9866C137.127 5.9866 137.683 6.54112 137.683 7.22656Z" stroke="#636F71" stroke-width="2"/>
<ellipse cx="136.444" cy="7.2267" rx="1.49226" ry="1.4933" fill="#636F71"/>
</svg>
