<svg width="38" height="36" viewBox="0 0 38 36" fill="none" xmlns="http://www.w3.org/2000/svg">
<path d="M22.0264 11.5268V7.35417C24.5436 7.35417 24.6257 5.39325 24.3521 4.4128C24.6257 4.18478 25.3234 3.89293 25.9254 4.5496C26.5274 5.20628 28.1143 5.91768 29.4824 5.91768C29.6648 5.89488 31.2883 5.86296 36.3228 5.91768C36.7332 6.53332 36.5964 6.80693 36.4596 7.35417C36.3228 7.9014 34.5443 8.51703 33.5182 8.31182C33.3814 9.6115 32.0134 10.3639 30.9873 9.54309C31.1013 9.7255 31.1104 10.1998 30.2348 10.6376C29.3593 11.0753 28.4563 10.82 28.1143 10.6376C28.1827 10.8656 28.169 11.3626 27.5671 11.5268C26.8146 11.732 25.7202 11.8004 24.8993 11.048C24.5163 11.9783 22.8244 11.7548 22.0264 11.5268Z" stroke="#48B986"/>
<path d="M15.5698 11.5268V7.35417C13.0526 7.35417 12.9705 5.39325 13.2441 4.4128C12.9705 4.18478 12.2728 3.89293 11.6708 4.5496C11.0688 5.20628 9.48187 5.91768 8.11379 5.91768C7.93138 5.89488 6.30792 5.86296 1.27339 5.91768C0.862962 6.53332 0.99977 6.80693 1.13658 7.35417C1.27339 7.9014 3.05189 8.51703 4.07795 8.31182C4.21476 9.6115 5.58284 10.3639 6.6089 9.54309C6.49489 9.7255 6.48577 10.1998 7.36134 10.6376C8.23691 11.0753 9.13985 10.82 9.48187 10.6376C9.41346 10.8656 9.42714 11.3626 10.0291 11.5268C10.7815 11.732 11.876 11.8004 12.6969 11.048C13.0799 11.9783 14.7718 11.7548 15.5698 11.5268Z" stroke="#48B986"/>
<path d="M22.5004 19.5123C22.5004 19.9182 22.2026 20.3875 21.498 20.7839C20.809 21.1714 19.8235 21.4269 18.7077 21.4269C17.5919 21.4269 16.6064 21.1714 15.9175 20.7839C15.2128 20.3875 14.915 19.9182 14.915 19.5123C14.915 19.1064 15.2128 18.637 15.9175 18.2407C16.6064 17.8531 17.5919 17.5977 18.7077 17.5977C19.8235 17.5977 20.809 17.8531 21.498 18.2407C22.2026 18.637 22.5004 19.1064 22.5004 19.5123Z" stroke="#48B986"/>
<path d="M21.9643 23.5365C21.9643 23.8723 21.7216 24.2741 21.1161 24.62C20.5248 24.9579 19.6746 25.1828 18.7082 25.1828C17.7419 25.1828 16.8917 24.9579 16.3004 24.62C15.6949 24.2741 15.4521 23.8723 15.4521 23.5365C15.4521 23.2006 15.6949 22.7989 16.3004 22.4529C16.8917 22.115 17.7419 21.8901 18.7082 21.8901C19.6746 21.8901 20.5248 22.115 21.1161 22.4529C21.7216 22.7989 21.9643 23.2006 21.9643 23.5365Z" stroke="#48B986"/>
<path d="M21.4278 27.0245C21.4278 27.2915 21.2386 27.6256 20.7329 27.9206C20.2394 28.2085 19.5247 28.4026 18.7083 28.4026C17.8918 28.4026 17.1772 28.2085 16.6837 27.9206C16.1779 27.6256 15.9888 27.2915 15.9888 27.0245C15.9888 26.7576 16.1779 26.4235 16.6837 26.1284C17.1772 25.8406 17.8918 25.6465 18.7083 25.6465C19.5247 25.6465 20.2394 25.8406 20.7329 26.1284C21.2386 26.4235 21.4278 26.7576 21.4278 27.0245Z" stroke="#48B986"/>
<path fill-rule="evenodd" clip-rule="evenodd" d="M16.5743 12.8322C14.4071 13.241 12.8809 14.2208 12.8809 15.3646C12.8809 16.8757 15.5453 18.1007 18.832 18.1007C22.1187 18.1007 24.7832 16.8757 24.7832 15.3646C24.7832 14.1968 23.192 13.1999 20.9522 12.8071V13.824C21.5956 13.9487 22.1619 14.1266 22.6224 14.3384C23.6271 14.8003 23.7832 15.2362 23.7832 15.3646C23.7832 15.4929 23.6271 15.9288 22.6224 16.3907C21.7039 16.813 20.3648 17.1007 18.832 17.1007C17.2992 17.1007 15.9601 16.813 15.0416 16.3907C14.0369 15.9288 13.8809 15.4929 13.8809 15.3646C13.8809 15.2362 14.0369 14.8003 15.0416 14.3384C15.4691 14.1419 15.9876 13.9745 16.5743 13.8517V12.8322Z" fill="#48B986"/>
<path d="M20.2842 4.793C20.8301 4.35075 21.1802 3.67405 21.1802 2.91531C21.1802 1.58137 20.0989 0.5 18.7649 0.5C17.431 0.5 16.3496 1.58137 16.3496 2.91531C16.3496 3.706 16.7297 4.40744 17.3156 4.84756L17.3168 4.91477L17.3335 5.84609C17.3479 6.64857 17.3687 7.79527 17.3942 9.17216C17.4452 11.9259 17.5148 15.6005 17.5896 19.2838C17.6644 22.9668 17.7444 26.6593 17.8159 29.4484C17.8516 30.8427 17.8853 32.0128 17.9153 32.8435C17.9302 33.2584 17.9443 33.5914 17.9574 33.8262C17.9639 33.9429 17.9704 34.04 17.977 34.1124C17.9802 34.1477 17.984 34.1839 17.9889 34.2162C17.9912 34.2318 17.9949 34.254 18.0006 34.2783L18.0009 34.2795C18.0035 34.2912 18.0192 34.3609 18.0626 34.4332C18.1828 34.6335 18.4228 34.9357 18.8199 34.9192C19.1844 34.904 19.4103 34.6223 19.523 34.4533C19.5703 34.3823 19.5891 34.3137 19.5933 34.298L19.5937 34.2966C19.6012 34.2698 19.606 34.2453 19.609 34.228C19.6153 34.1926 19.6202 34.1539 19.6241 34.1171C19.6322 34.0418 19.6399 33.9423 19.6474 33.8241C19.6626 33.5862 19.6784 33.2504 19.6948 32.8335C19.7275 31.9987 19.7631 30.825 19.7998 29.4278C19.8734 26.6327 19.9522 22.9358 20.0245 19.2496C20.0969 15.5632 20.1628 11.8865 20.2107 9.13142C20.2346 7.75388 20.254 6.60672 20.2674 5.80394L20.2829 4.87229L20.2842 4.793ZM19.0858 2.91531C19.0858 3.0925 18.9421 3.23616 18.7649 3.23616C18.5877 3.23616 18.4441 3.0925 18.4441 2.91531C18.4441 2.73812 18.5877 2.59446 18.7649 2.59446C18.9421 2.59446 19.0858 2.73812 19.0858 2.91531Z" stroke="#48B986"/>
<path d="M19.3117 2.9154C19.3117 3.21762 19.0667 3.46263 18.7645 3.46263C18.4623 3.46263 18.2173 3.21762 18.2173 2.9154C18.2173 2.61317 18.4623 2.36816 18.7645 2.36816C19.0667 2.36816 19.3117 2.61317 19.3117 2.9154Z" fill="#48B986"/>
</svg>
