<svg width="100" height="96" viewBox="0 0 100 96" fill="none" xmlns="http://www.w3.org/2000/svg">
<path d="M58.3759 30.7247V19.3383C65.245 19.3383 65.469 13.9873 64.7224 11.3118C65.469 10.6896 67.373 9.89318 69.0156 11.6851C70.6583 13.4771 74.9888 15.4184 78.7221 15.4184C79.2199 15.3562 83.65 15.2691 97.3884 15.4184C98.5083 17.0983 98.135 17.845 97.7617 19.3383C97.3884 20.8316 92.5351 22.5116 89.7352 21.9516C89.3619 25.4982 85.6286 27.5515 82.8287 25.3115C83.1398 25.8093 83.1647 27.1035 80.7754 28.2981C78.3861 29.4928 75.9222 28.7959 74.9888 28.2981C75.1755 28.9203 75.1382 30.2767 73.4955 30.7247C71.4422 31.2847 68.4556 31.4714 66.2157 29.4181C65.1704 31.9567 60.5536 31.3469 58.3759 30.7247Z" stroke="#48B986" stroke-width="2"/>
<path d="M40.7592 30.7247V19.3383C33.89 19.3383 33.666 13.9873 34.4126 11.3118C33.666 10.6896 31.762 9.89318 30.1194 11.6851C28.4767 13.4771 24.1462 15.4184 20.4129 15.4184C19.9151 15.3562 15.485 15.2691 1.74664 15.4184C0.626663 17.0983 0.999989 17.845 1.37331 19.3383C1.74664 20.8316 6.59987 22.5116 9.39981 21.9516C9.77314 25.4982 13.5064 27.5515 16.3063 25.3115C15.9952 25.8093 15.9703 27.1035 18.3596 28.2981C20.7489 29.4928 23.2129 28.7959 24.1462 28.2981C23.9595 28.9203 23.9968 30.2767 25.6395 30.7247C27.6928 31.2847 30.6794 31.4714 32.9193 29.4181C33.9646 31.9567 38.5814 31.3469 40.7592 30.7247Z" stroke="#48B986" stroke-width="2"/>
<path d="M60.034 52.5163C60.034 53.8141 59.0883 55.1928 57.1128 56.304C55.1687 57.3975 52.4155 58.1054 49.32 58.1054C46.2245 58.1054 43.4714 57.3975 41.5273 56.304C39.5518 55.1928 38.6061 53.8141 38.6061 52.5163C38.6061 51.2185 39.5518 49.8399 41.5273 48.7287C43.4714 47.6352 46.2245 46.9272 49.32 46.9272C52.4155 46.9272 55.1687 47.6352 57.1128 48.7287C59.0883 49.8399 60.034 51.2185 60.034 52.5163Z" stroke="#48B986" stroke-width="2"/>
<path d="M58.5697 63.4981C58.5697 64.6017 57.7778 65.7963 56.0715 66.7714C54.3935 67.7302 52.0086 68.3551 49.32 68.3551C46.6314 68.3551 44.2465 67.7302 42.5685 66.7714C40.8622 65.7963 40.0703 64.6017 40.0703 63.4981C40.0703 62.3945 40.8622 61.1999 42.5685 60.2248C44.2465 59.266 46.6314 58.6411 49.32 58.6411C52.0086 58.6411 54.3935 59.266 56.0715 60.2248C57.7778 61.1999 58.5697 62.3945 58.5697 63.4981Z" stroke="#48B986" stroke-width="2"/>
<path d="M57.1056 73.016C57.1056 73.9278 56.4647 74.9383 55.0285 75.776C53.6169 76.5994 51.601 77.1408 49.3201 77.1408C47.0393 77.1408 45.0233 76.5994 43.6117 75.776C42.1756 74.9383 41.5347 73.9278 41.5347 73.016C41.5347 72.1041 42.1756 71.0937 43.6117 70.2559C45.0233 69.4325 47.0393 68.8911 49.3201 68.8911C51.601 68.8911 53.6169 69.4325 55.0285 70.2559C56.4647 71.0937 57.1056 72.1041 57.1056 73.016Z" stroke="#48B986" stroke-width="2"/>
<path fill-rule="evenodd" clip-rule="evenodd" d="M43.5009 34.2886C37.5865 35.4042 33.4211 38.0781 33.4211 41.1993C33.4211 45.3229 40.6919 48.6658 49.6608 48.6658C58.6297 48.6658 65.9005 45.3229 65.9005 41.1993C65.9005 38.0128 61.559 35.2926 55.4473 34.2207V36.2535C57.3112 36.6049 58.9606 37.1171 60.3085 37.7368C63.1029 39.0216 63.9005 40.3919 63.9005 41.1993C63.9005 42.0067 63.1029 43.377 60.3085 44.6618C57.6867 45.8672 53.9241 46.6658 49.6608 46.6658C45.3975 46.6658 41.6349 45.8672 39.0131 44.6618C36.2187 43.377 35.4211 42.0067 35.4211 41.1993C35.4211 40.3919 36.2187 39.0216 39.0131 37.7368C40.2703 37.1588 41.7897 36.6743 43.5009 36.3266V34.2886Z" fill="#48B986"/>
<path d="M53.2585 12.1715C54.7417 11.0347 55.7007 9.24289 55.7007 7.22656C55.7007 3.78772 52.9129 1 49.4741 1C46.0353 1 43.2476 3.78772 43.2476 7.22656C43.2476 9.32798 44.289 11.1852 45.8803 12.3118L45.8868 12.6762C45.8972 13.2626 45.9126 14.1227 45.9323 15.2176C45.9717 17.4074 46.0284 20.5365 46.098 24.2937C46.2371 31.808 46.4272 41.8352 46.6313 51.8858C46.8354 61.936 47.0535 72.0114 47.2487 79.6215C47.3462 83.426 47.4381 86.6174 47.5197 88.8824C47.5605 90.014 47.5988 90.9197 47.6343 91.5569C47.652 91.874 47.6694 92.1338 47.6869 92.3249C47.6954 92.4187 47.7051 92.5093 47.7168 92.5872C47.7225 92.6251 47.7308 92.675 47.7432 92.7276L47.7438 92.7306C47.75 92.7578 47.7823 92.8998 47.87 93.0459C48.1852 93.5713 48.74 94.2318 49.6091 94.1956C50.4128 94.1621 50.9393 93.5364 51.2395 93.0861C51.3356 92.9419 51.3742 92.8013 51.3838 92.7665L51.3846 92.7637C51.4006 92.7056 51.4114 92.651 51.4188 92.6097C51.4338 92.5253 51.4459 92.4292 51.4563 92.3321C51.4775 92.1344 51.4981 91.8689 51.5186 91.5482C51.5596 90.9034 51.6027 89.9907 51.6473 88.8539C51.7367 86.5781 51.8336 83.3772 51.9339 79.5649C52.1345 71.939 52.3495 61.8518 52.547 51.7929C52.7445 41.7336 52.9244 31.7008 53.055 24.1829C53.1203 20.4239 53.1732 17.2936 53.2099 15.103C53.2282 14.0077 53.2424 13.1474 53.2521 12.5608L53.2585 12.1715ZM50.7141 7.22656C50.7141 7.91134 50.1589 8.46651 49.4741 8.46651C48.7894 8.46651 48.2342 7.91134 48.2342 7.22656C48.2342 6.54177 48.7894 5.9866 49.4741 5.9866C50.1589 5.9866 50.7141 6.54177 50.7141 7.22656Z" stroke="#48B986" stroke-width="2"/>
<circle cx="49.4741" cy="7.2267" r="1.4933" fill="#48B986"/>
</svg>
