<svg width="100" height="96" viewBox="0 0 100 96" fill="none" xmlns="http://www.w3.org/2000/svg">
<path d="M58.3398 30.7252V19.3388C65.2043 19.3388 65.4281 13.9878 64.682 11.3123C65.4281 10.6901 67.3307 9.89366 68.9722 11.6856C70.6137 13.4776 74.9413 15.4189 78.6719 15.4189C79.1694 15.3567 83.5964 15.2695 97.3252 15.4189C98.4444 17.0988 98.0714 17.8455 97.6983 19.3388C97.3252 20.8321 92.4754 22.5121 89.6774 21.9521C89.3043 25.4987 85.5737 27.552 82.7757 25.312C83.0866 25.8098 83.1114 27.104 80.7238 28.2986C78.3362 29.4932 75.8739 28.7964 74.9413 28.2986C75.1278 28.9208 75.0905 30.2772 73.449 30.7252C71.3972 31.2852 68.4126 31.4719 66.1742 29.4186C65.1296 31.9572 60.5161 31.3474 58.3398 30.7252Z" stroke="#636F71" stroke-width="2"/>
<path d="M40.7354 30.7252V19.3388C33.8709 19.3388 33.6471 13.9878 34.3932 11.3123C33.6471 10.6901 31.7445 9.89366 30.103 11.6856C28.4615 13.4776 24.1339 15.4189 20.4033 15.4189C19.9058 15.3567 15.4788 15.2695 1.74995 15.4189C0.630749 17.0988 1.00381 17.8455 1.37688 19.3388C1.74995 20.8321 6.59981 22.5121 9.3978 21.9521C9.77087 25.4987 13.5015 27.552 16.2995 25.312C15.9886 25.8098 15.9638 27.104 18.3514 28.2986C20.739 29.4932 23.2012 28.7964 24.1339 28.2986C23.9474 28.9208 23.9847 30.2772 25.6262 30.7252C27.678 31.2852 30.6626 31.4719 32.901 29.4186C33.9455 31.9572 38.5591 31.3474 40.7354 30.7252Z" stroke="#636F71" stroke-width="2"/>
<path d="M59.9961 52.5168C59.9961 53.815 59.0508 55.1936 57.077 56.3046C55.1344 57.3981 52.3834 58.1059 49.2903 58.1059C46.1971 58.1059 43.4462 57.3981 41.5035 56.3046C39.5297 55.1936 38.5845 53.815 38.5845 52.5168C38.5845 51.2187 39.5297 49.8401 41.5035 48.7291C43.4462 47.6356 46.1971 46.9277 49.2903 46.9277C52.3834 46.9277 55.1344 47.6356 57.077 48.7291C59.0508 49.8401 59.9961 51.2187 59.9961 52.5168Z" stroke="#636F71" stroke-width="2"/>
<path d="M58.533 63.4986C58.533 64.6026 57.7415 65.7971 56.0366 66.772C54.36 67.7308 51.977 68.3556 49.2904 68.3556C46.6039 68.3556 44.2209 67.7308 42.5442 66.772C40.8394 65.7971 40.0479 64.6026 40.0479 63.4986C40.0479 62.3946 40.8394 61.2 42.5442 60.2252C44.2209 59.2664 46.6039 58.6416 49.2904 58.6416C51.977 58.6416 54.36 59.2664 56.0366 60.2252C57.7415 61.2 58.533 62.3946 58.533 63.4986Z" stroke="#636F71" stroke-width="2"/>
<path d="M57.0695 73.0165C57.0695 73.9287 56.4288 74.9391 54.9939 75.7767C53.5835 76.6 51.5691 77.1413 49.2901 77.1413C47.0111 77.1413 44.9967 76.6 43.5863 75.7767C42.1514 74.9391 41.5107 73.9287 41.5107 73.0165C41.5107 72.1042 42.1514 71.0939 43.5863 70.2563C44.9967 69.4329 47.0111 68.8916 49.2901 68.8916C51.5691 68.8916 53.5835 69.4329 54.9939 70.2563C56.4288 71.0939 57.0695 72.1042 57.0695 73.0165Z" stroke="#636F71" stroke-width="2"/>
<path fill-rule="evenodd" clip-rule="evenodd" d="M43.4751 34.2882C37.5648 35.4038 33.4023 38.0776 33.4023 41.1988C33.4023 45.3225 40.668 48.6653 49.6307 48.6653C58.5934 48.6653 65.8591 45.3225 65.8591 41.1988C65.8591 38.0123 61.5206 35.2921 55.4132 34.2202V36.253C57.2754 36.6044 58.9233 37.1165 60.27 37.7361C63.0617 39.0206 63.8591 40.3907 63.8591 41.1988C63.8591 42.007 63.0617 43.3771 60.27 44.6615C57.6503 45.8668 53.8908 46.6653 49.6307 46.6653C45.3707 46.6653 41.6111 45.8668 38.9915 44.6615C36.1998 43.3771 35.4023 42.007 35.4023 41.1988C35.4023 40.3907 36.1998 39.0206 38.9915 37.7361C40.2475 37.1583 41.7655 36.6739 43.4751 36.3262V34.2882Z" fill="#636F71"/>
<path d="M53.2265 12.1712C54.7089 11.0343 55.667 9.24259 55.667 7.22656C55.667 3.78837 52.8816 1 49.4441 1C46.0067 1 43.2212 3.78837 43.2212 7.22656C43.2212 9.32766 44.2617 11.1848 45.8521 12.3115L45.8586 12.6762C45.869 13.2626 45.8843 14.1227 45.904 15.2176C45.9434 17.4074 46.0001 20.5364 46.0696 24.2937C46.2086 31.808 46.3986 41.8352 46.6026 51.8858C46.8065 61.936 47.0245 72.0113 47.2195 79.6215C47.317 83.426 47.4088 86.6174 47.4904 88.8824C47.5311 90.0139 47.5695 90.9197 47.6049 91.5569C47.6226 91.874 47.64 92.1338 47.6574 92.3248C47.666 92.4186 47.6757 92.5093 47.6873 92.5871C47.693 92.625 47.7013 92.6748 47.7136 92.7275L47.7143 92.7304C47.7205 92.7576 47.7528 92.8996 47.8403 93.0457C48.1552 93.5708 48.7098 94.2318 49.579 94.1956C50.3829 94.162 50.9092 93.5359 51.209 93.0859C51.3051 92.9416 51.3436 92.8011 51.3532 92.7664L51.354 92.7635C51.37 92.7055 51.3808 92.6509 51.3881 92.6096C51.4031 92.5252 51.4153 92.4291 51.4257 92.332C51.4468 92.1344 51.4674 91.8689 51.4878 91.5481C51.5289 90.9033 51.5719 89.9907 51.6165 88.8539C51.7058 86.5781 51.8026 83.3772 51.9029 79.5649C52.1034 71.939 52.3182 61.8517 52.5156 51.7929C52.7129 41.7336 52.8927 31.7008 53.0232 24.1829C53.0885 20.4239 53.1414 17.2936 53.178 15.103C53.1963 14.0077 53.2105 13.1474 53.2201 12.5608L53.2265 12.1712ZM50.6825 7.22656C50.6825 7.912 50.1273 8.46651 49.4441 8.46651C48.7609 8.46651 48.2057 7.912 48.2057 7.22656C48.2057 6.54112 48.7609 5.9866 49.4441 5.9866C50.1273 5.9866 50.6825 6.54112 50.6825 7.22656Z" stroke="#636F71" stroke-width="2"/>
<ellipse cx="49.4439" cy="7.2267" rx="1.49226" ry="1.4933" fill="#636F71"/>
</svg>
