<svg width="16" height="16" viewBox="0 0 16 16" fill="none" xmlns="http://www.w3.org/2000/svg">
<path d="M14.4323 10.9109L12.17 10.6526C11.904 10.6214 11.6343 10.6508 11.3813 10.7388C11.1283 10.8267 10.8986 10.9708 10.7093 11.1603L9.07041 12.7992C6.54193 11.5132 4.48677 9.45803 3.20082 6.92954L4.84858 5.28177C5.23157 4.89878 5.41862 4.36436 5.35627 3.82105L5.09797 1.57652C5.04747 1.14202 4.83895 0.741262 4.51211 0.450553C4.18527 0.159843 3.76294 -0.000518607 3.32551 1.26004e-06H1.78464C0.778165 1.26004e-06 -0.0590758 0.837246 0.0032719 1.84372C0.475333 9.45018 6.55869 15.5247 14.1562 15.9967C15.1627 16.0591 15.9999 15.2218 15.9999 14.2154V12.6745C16.0088 11.7749 15.3319 11.0178 14.4323 10.9109Z" fill="#48B986"/>
</svg>
