<svg width="20" height="16" viewBox="0 0 20 16" fill="none" xmlns="http://www.w3.org/2000/svg">
<path d="M19.5 11H19V7.62187C19 7.225 18.8406 6.84375 18.5594 6.5625L15.4375 3.44062C15.1562 3.15937 14.775 3 14.3781 3H13V1.5C13 0.671875 12.3281 0 11.5 0H3.5C2.67188 0 2 0.671875 2 1.5V3H0.25C0.1125 3 0 3.1125 0 3.25V3.75C0 3.8875 0.1125 4 0.25 4H8.75C8.8875 4 9 4.1125 9 4.25V4.75C9 4.8875 8.8875 5 8.75 5H1.25C1.1125 5 1 5.1125 1 5.25V5.75C1 5.8875 1.1125 6 1.25 6H7.75C7.8875 6 8 6.1125 8 6.25V6.75C8 6.8875 7.8875 7 7.75 7H0.25C0.1125 7 0 7.1125 0 7.25V7.75C0 7.8875 0.1125 8 0.25 8H6.75C6.8875 8 7 8.1125 7 8.25V8.75C7 8.8875 6.8875 9 6.75 9H2V13C2 14.6562 3.34375 16 5 16C6.65625 16 8 14.6562 8 13H12C12 14.6562 13.3438 16 15 16C16.6562 16 18 14.6562 18 13H19.5C19.775 13 20 12.775 20 12.5V11.5C20 11.225 19.775 11 19.5 11ZM5 14.5C4.17188 14.5 3.5 13.8281 3.5 13C3.5 12.1719 4.17188 11.5 5 11.5C5.82812 11.5 6.5 12.1719 6.5 13C6.5 13.8281 5.82812 14.5 5 14.5ZM15 14.5C14.1719 14.5 13.5 13.8281 13.5 13C13.5 12.1719 14.1719 11.5 15 11.5C15.8281 11.5 16.5 12.1719 16.5 13C16.5 13.8281 15.8281 14.5 15 14.5ZM17.5 8H13V4.5H14.3781L17.5 7.62187V8Z" fill="#48B986"/>
</svg>
