<svg width="16" height="16" viewBox="0 0 16 16" fill="none" xmlns="http://www.w3.org/2000/svg">
<path d="M8 0C12.4184 0 16 3.5816 16 8C16 12.4184 12.4184 16 8 16C3.5816 16 0 12.4184 0 8C0 3.5816 3.5816 0 8 0ZM8 3.2C7.78783 3.2 7.58434 3.28429 7.43431 3.43431C7.28429 3.58434 7.2 3.78783 7.2 4V8C7.20005 8.21216 7.28436 8.41561 7.4344 8.5656L9.8344 10.9656C9.98528 11.1113 10.1874 11.192 10.3971 11.1901C10.6069 11.1883 10.8075 11.1042 10.9559 10.9559C11.1042 10.8075 11.1883 10.6069 11.1901 10.3971C11.192 10.1874 11.1113 9.98528 10.9656 9.8344L8.8 7.6688V4C8.8 3.78783 8.71571 3.58434 8.56569 3.43431C8.41566 3.28429 8.21217 3.2 8 3.2Z" fill="#48B986"/>
</svg>
